<?xml version="1.0" encoding="iso-8859-1"?>
<!-- Generator: Adobe Illustrator 19.0.0, SVG Export Plug-In . SVG Version: 6.00 Build 0)  -->
<svg version="1.1" id="Capa_1" xmlns="http://www.w3.org/2000/svg" xmlns:xlink="http://www.w3.org/1999/xlink" x="0px" y="0px"
	 viewBox="0 0 512.022 512.022" style="enable-background:new 0 0 512.022 512.022;" xml:space="preserve">
<g transform="translate(-1)">
	<g>
		<g>
			<path d="M513.011,61.365c0.417-14.574-11.027-26.743-25.6-27.221h-71.302l0.66-5.45c0.881-7.274-1.397-14.576-6.256-20.06
				s-11.834-8.623-19.161-8.624H122.669c-7.326,0.001-14.301,3.14-19.16,8.622c-4.859,5.483-7.137,12.784-6.257,20.057l0.661,5.454
				H26.611c-14.573,0.478-26.017,12.646-25.6,27.221v355.158c-0.417,14.574,11.027,26.743,25.6,27.221H191.61l-17.5,51.2h-10.965
				c-4.713,0-8.533,3.82-8.533,8.533s3.82,8.533,8.533,8.533h187.733c4.713,0,8.533-3.82,8.533-8.533s-3.82-8.533-8.533-8.533
				h-10.965l-17.5-51.2h164.999c14.573-0.478,26.017-12.646,25.6-27.221V61.365z M116.286,19.953
				c1.609-1.84,3.939-2.889,6.383-2.875h268.683c2.442,0.001,4.766,1.048,6.385,2.877c1.619,1.828,2.377,4.262,2.082,6.686
				l-30.633,252.717c-0.366,3.018-2.308,5.614-5.1,6.817l-30.707,13.16l-0.142,0.061l-72.859,31.225
				c-2.151,0.914-4.581,0.915-6.733,0.004l-72.852-31.225l-0.155-0.066l-30.701-13.159c-2.791-1.202-4.733-3.796-5.1-6.813
				L114.203,26.636C113.893,24.211,114.653,21.772,116.286,19.953z M192.144,494.944l17.5-51.2h94.733l17.5,51.2H192.144z
				 M487.411,426.678h-460.8c-5.107-0.55-8.871-5.029-8.533-10.154v-41.046h477.867v41.046
				C496.282,421.649,492.518,426.128,487.411,426.678z M495.944,61.365v297.046H18.078V61.365
				c-0.338-5.125,3.427-9.605,8.533-10.154h73.371l21.721,179.2H94.878c-4.713,0-8.533,3.82-8.533,8.533s3.821,8.533,8.533,8.533
				h28.895l2.069,17.067h-13.897c-4.713,0-8.533,3.821-8.533,8.533c0,4.713,3.82,8.533,8.533,8.533h15.992
				c0.901,6.789,4.482,12.935,9.944,17.067h-25.936c-4.713,0-8.533,3.82-8.533,8.533s3.82,8.533,8.533,8.533h63.673l71.31,30.566
				c6.442,2.744,13.725,2.744,20.167,0v-0.004l71.307-30.562h63.677c4.713,0,8.533-3.82,8.533-8.533s-3.82-8.533-8.533-8.533
				h-25.936c5.461-4.132,9.042-10.278,9.943-17.067h15.993c4.713,0,8.533-3.821,8.533-8.533c0-4.713-3.82-8.533-8.533-8.533H388.18
				l2.069-17.067h28.895c4.713,0,8.533-3.82,8.533-8.533s-3.82-8.533-8.533-8.533h-26.827l21.722-179.2h73.371
				C492.518,51.761,496.282,56.24,495.944,61.365z"/>
			<path d="M160.003,262.64c0.731,6.049,4.627,11.251,10.225,13.655l80.058,34.308c4.291,1.843,9.15,1.844,13.442,0.004
				l80.067-34.313c5.592-2.4,9.487-7.593,10.225-13.633l25.383-209.396c0.584-4.848-0.935-9.714-4.173-13.368
				c-3.238-3.655-7.886-5.748-12.769-5.752h-210.9c-4.882,0.004-9.529,2.097-12.767,5.751c-3.238,3.654-4.758,8.519-4.174,13.366
				L160.003,262.64z M362.453,51.211l-25.375,209.4l-80.067,34.313l-80.058-34.313l-25.392-209.4H362.453z"/>
			<path d="M301.869,85.344l-115.633,67.129c-3.338,1.936-4.961,5.872-3.958,9.598c1.003,3.726,4.383,6.315,8.242,6.314h123.35
				l-8.317,68.6l-48.542,20.796l-48.542-20.796l-4.442-36.642c-0.566-4.681-4.819-8.016-9.5-7.45c-4.681,0.566-8.016,4.819-7.45,9.5
				l5.033,41.521c0.368,3.02,2.313,5.616,5.108,6.817l56.425,24.179c2.15,0.922,4.584,0.922,6.733,0l56.425-24.179
				c2.795-1.201,4.74-3.797,5.108-6.817l10.067-83.038c0.29-2.424-0.471-4.856-2.091-6.682c-1.62-1.827-3.943-2.873-6.384-2.876
				H222.219L337.853,84.19c3.337-1.937,4.96-5.872,3.957-9.598c-1.003-3.726-4.382-6.315-8.24-6.314H180.453
				c-4.713,0-8.533,3.82-8.533,8.533s3.82,8.533,8.533,8.533H301.869z"/>
			<path d="M43.678,247.478h17.067c4.713,0,8.533-3.82,8.533-8.533s-3.82-8.533-8.533-8.533H43.678c-4.713,0-8.533,3.82-8.533,8.533
				S38.965,247.478,43.678,247.478z"/>
			<path d="M86.344,264.544H43.678c-4.713,0-8.533,3.821-8.533,8.533c0,4.713,3.82,8.533,8.533,8.533h42.667
				c4.713,0,8.533-3.821,8.533-8.533C94.878,268.365,91.057,264.544,86.344,264.544z"/>
			<path d="M77.811,298.678H43.678c-4.713,0-8.533,3.82-8.533,8.533s3.82,8.533,8.533,8.533h34.133c4.713,0,8.533-3.82,8.533-8.533
				S82.524,298.678,77.811,298.678z"/>
			<path d="M470.344,230.411h-17.067c-4.713,0-8.533,3.82-8.533,8.533s3.821,8.533,8.533,8.533h17.067
				c4.713,0,8.533-3.82,8.533-8.533S475.057,230.411,470.344,230.411z"/>
			<path d="M470.344,264.544h-42.667c-4.713,0-8.533,3.821-8.533,8.533c0,4.713,3.82,8.533,8.533,8.533h42.667
				c4.713,0,8.533-3.821,8.533-8.533C478.878,268.365,475.057,264.544,470.344,264.544z"/>
			<path d="M470.344,298.678h-34.133c-4.713,0-8.533,3.82-8.533,8.533s3.82,8.533,8.533,8.533h34.133
				c4.713,0,8.533-3.82,8.533-8.533S475.057,298.678,470.344,298.678z"/>
		</g>
	</g>
</g>
<g>
</g>
<g>
</g>
<g>
</g>
<g>
</g>
<g>
</g>
<g>
</g>
<g>
</g>
<g>
</g>
<g>
</g>
<g>
</g>
<g>
</g>
<g>
</g>
<g>
</g>
<g>
</g>
<g>
</g>
</svg>
